<svg xmlns="http://www.w3.org/2000/svg" width="18" height="37" fill="none" viewBox="0 0 18 37"><path fill="#45227E" fill-rule="evenodd" d="M3.814 4.322c1.617-1.832 3.85-2.965 6.317-2.965V2.52c-2.183 0-4.16 1.003-5.591 2.624-1.43 1.621-2.316 3.861-2.316 6.335h1.197c0-2.1.751-4 1.966-5.376C6.6 4.728 8.278 3.876 10.13 3.876V5.04c-1.569 0-2.99.721-4.019 1.887S4.448 9.7 4.448 11.479h1.197c0-1.403.502-2.675 1.314-3.594.812-.92 1.933-1.49 3.172-1.49V7.56c-.955 0-1.82.439-2.446 1.148-.627.71-1.014 1.69-1.014 2.772h1.198c0-.708.253-1.349.662-1.813s.976-.75 1.6-.75V37h1.198V0H10.13C7.333 0 4.8 1.285 2.967 3.362S0 8.31 0 11.48h1.198c0-2.795 1-5.325 2.616-7.157M12.355 0v37h1.198V0zm2.224 0v37h1.197V0zm2.224 0v37H18V0z" clip-rule="evenodd"/></svg>