<svg xmlns="http://www.w3.org/2000/svg" width="18" height="36" fill="none" viewBox="0 0 18 36"><path fill="#45227E" fill-rule="evenodd" d="M3.388 4.205C4.824 2.422 6.808 1.32 9 1.32s4.176 1.102 5.612 2.885 2.324 4.244 2.324 6.964-.888 5.181-2.324 6.964c-1.436 1.782-3.42 2.884-5.612 2.884-.849 0-1.617.427-2.174 1.117s-.9 1.644-.9 2.697H6.99c0-.688.225-1.312.589-1.763.363-.452.866-.73 1.421-.73 2.485 0 4.735-1.25 6.364-3.272S18 14.253 18 11.169s-1.007-5.877-2.636-7.898S11.485 0 9 0 4.265 1.25 2.636 3.271 0 8.084 0 11.17h1.064c0-2.72.888-5.182 2.324-6.964M0 36V24.831c0-3.084 1.007-5.876 2.636-7.897S6.515 13.663 9 13.663c.555 0 1.057-.279 1.421-.73.364-.452.589-1.075.589-1.764s-.225-1.313-.589-1.764-.866-.73-1.421-.73-1.058.278-1.421.73c-.364.451-.59 1.075-.59 1.764H5.927c0-1.054.344-2.007.9-2.697.557-.69 1.325-1.118 2.174-1.118s1.617.427 2.173 1.118c.557.69.9 1.643.9 2.697 0 1.053-.343 2.006-.9 2.697-.556.69-1.324 1.117-2.173 1.117-2.192 0-4.176 1.102-5.612 2.885s-2.324 4.244-2.324 6.963V36zm1.975-11.169c0-2.407.787-4.586 2.058-6.163C5.304 17.09 7.06 16.114 9 16.114c1.1 0 2.097-.553 2.818-1.448s1.168-2.132 1.168-3.497c0-1.366-.447-2.603-1.168-3.498S10.101 6.223 9 6.223s-2.097.553-2.818 1.448-1.168 2.132-1.168 3.498H3.951c0-1.73.565-3.297 1.479-4.43C6.343 5.603 7.606 4.902 9 4.902s2.657.701 3.57 1.835c.914 1.134 1.48 2.7 1.48 4.43s-.566 3.297-1.48 4.431c-.913 1.134-2.176 1.835-3.57 1.835-1.646 0-3.136.828-4.215 2.167S3.04 22.789 3.04 24.83V36H1.975zm1.976 0c0-1.73.565-3.296 1.479-4.43.913-1.134 2.176-1.835 3.57-1.835 1.646 0 3.136-.828 4.215-2.167s1.746-3.188 1.746-5.23-.668-3.892-1.746-5.23C12.136 4.598 10.646 3.77 9 3.77s-3.136.83-4.215 2.168-1.745 3.188-1.745 5.23H1.975c0-2.406.787-4.586 2.058-6.163C5.304 3.427 7.06 2.452 9 2.452s3.696.975 4.967 2.553 2.057 3.757 2.057 6.164-.786 4.586-2.057 6.163C12.696 18.91 10.94 19.886 9 19.886c-1.1 0-2.097.553-2.818 1.448s-1.168 2.131-1.168 3.497V36H3.951zm1.975 0V36h10.497v-1.32H6.99v-9.849zm1.064 2.495v1.32h9.433v-1.32zm9.433 2.451H6.99v1.32h9.433zm0 2.452H6.99v1.32h9.433z" clip-rule="evenodd"/></svg>