<svg xmlns="http://www.w3.org/2000/svg" width="20" height="33" fill="none" viewBox="0 0 20 33"><path fill="#45227E" fill-rule="evenodd" d="M3.765 3.854C5.36 2.221 7.565 1.21 10 1.21s4.64 1.01 6.235 2.644a9.1 9.1 0 0 1 2.583 6.384 9.13 9.13 0 0 1-1.702 5.332l-.045-.047a10 10 0 0 0-.727-.675l.02.017a8.1 8.1 0 0 0 1.441-4.627 8.06 8.06 0 0 0-2.286-5.65A7.7 7.7 0 0 0 10 2.248a7.7 7.7 0 0 0-5.519 2.34 8.06 8.06 0 0 0-2.286 5.65h1.182a6.84 6.84 0 0 1 1.94-4.795A6.53 6.53 0 0 1 10 3.457c1.829 0 3.485.76 4.683 1.986a6.84 6.84 0 0 1 1.94 4.795 6.86 6.86 0 0 1-1.213 3.912 10 10 0 0 0-.893-.524l.01.005a5.8 5.8 0 0 0 1.083-3.393 5.8 5.8 0 0 0-1.643-4.061A5.53 5.53 0 0 0 10 4.494a5.53 5.53 0 0 0-3.967 1.683 5.8 5.8 0 0 0-1.643 4.06h1.182c0-1.251.496-2.385 1.297-3.205a4.37 4.37 0 0 1 3.13-1.328c1.224 0 2.33.508 3.132 1.328a4.57 4.57 0 0 1 1.297 3.206 4.58 4.58 0 0 1-1.021 2.896 10 10 0 0 1-1.1-.336l.015.004q.048-.044.093-.092c.618-.633 1-1.507 1-2.472s-.382-1.84-1-2.473A3.37 3.37 0 0 0 10 6.741c-.943 0-1.797.392-2.415 1.024-.618.633-1 1.507-1 2.473h1.182c0-.632.25-1.203.654-1.617a2.2 2.2 0 0 1 3.158 0c.404.414.654.985.654 1.617a2.3 2.3 0 0 1-.654 1.617 2.2 2.2 0 0 1-1.579.67H3.214v1.21H10c2.435 0 4.64 1.01 6.235 2.644a9.1 9.1 0 0 1 2.583 6.383c0 2.493-.987 4.75-2.583 6.384-1.595 1.634-3.8 2.644-6.235 2.644s-4.64-1.01-6.235-2.644a9.1 9.1 0 0 1-2.583-6.384H0c0 2.827 1.12 5.387 2.929 7.24C4.739 31.853 7.239 33 9.999 33c2.762 0 5.262-1.146 7.072-2.999A10.33 10.33 0 0 0 20 22.762c0-2.366-.784-4.544-2.1-6.277l.011.015A10.35 10.35 0 0 0 20 10.238c0-2.827-1.12-5.387-2.93-7.24C15.262 1.147 12.762 0 10 0S4.739 1.146 2.929 2.999A10.33 10.33 0 0 0 0 10.238h1.182c0-2.493.987-4.75 2.583-6.384M10 14.772c2.155 0 4.107.894 5.52 2.34a8.06 8.06 0 0 1 2.285 5.65 8.06 8.06 0 0 1-2.286 5.65A7.7 7.7 0 0 1 10 30.754a7.7 7.7 0 0 1-5.519-2.34 8.06 8.06 0 0 1-2.286-5.65h1.182c0 1.872.741 3.567 1.94 4.794A6.53 6.53 0 0 0 10 29.543a6.53 6.53 0 0 0 4.683-1.986 6.84 6.84 0 0 0 1.94-4.795 6.84 6.84 0 0 0-1.94-4.794A6.53 6.53 0 0 0 10 15.982H3.214v-1.21zm0 2.247c1.55 0 2.952.643 3.967 1.682a5.8 5.8 0 0 1 1.643 4.061 5.8 5.8 0 0 1-1.643 4.062A5.53 5.53 0 0 1 10 28.506a5.53 5.53 0 0 1-3.967-1.682 5.8 5.8 0 0 1-1.643-4.062h1.182c0 1.253.496 2.386 1.297 3.206a4.36 4.36 0 0 0 3.13 1.328c1.224 0 2.33-.508 3.132-1.328a4.57 4.57 0 0 0 1.297-3.206 4.57 4.57 0 0 0-1.297-3.205A4.36 4.36 0 0 0 10 18.229H3.214v-1.21zm0 2.247c.943 0 1.797.391 2.415 1.024s1 1.507 1 2.472-.382 1.84-1 2.473A3.37 3.37 0 0 1 10 26.259a3.36 3.36 0 0 1-2.415-1.024 3.53 3.53 0 0 1-1-2.473h1.182c0 .632.25 1.203.654 1.617a2.2 2.2 0 0 0 3.158 0c.404-.414.654-.985.654-1.617a2.3 2.3 0 0 0-.654-1.617 2.2 2.2 0 0 0-1.579-.67H3.214v-1.21zm4.359-5.72.073.036zm-4.097-1.018q.06 0 .12.004zm.13.004.115.005zm.259.014.111.008zm.513.047.094.012zm.127.016.087.012zm.13.018.082.013zm.124.019.077.013zm.129.021.127.023-.059-.01q-.034-.008-.068-.012m.127.023.065.013.058.011.057.011z" clip-rule="evenodd"/></svg>