<svg xmlns="http://www.w3.org/2000/svg" width="18" height="36" fill="none" viewBox="0 0 18 36"><path fill="#45227E" fill-rule="evenodd" d="M3.388 31.795C4.824 33.578 6.808 34.68 9 34.68s4.176-1.102 5.612-2.885 2.324-4.244 2.324-6.964-.888-5.181-2.324-6.963-3.42-2.885-5.612-2.885H0V0h1.064v13.663h.911V0H3.04v13.663h.912V0h1.064v13.663h.911V0h9.519v1.32H6.99v1.131h8.455v1.32H6.99v1.132h8.455v1.32H6.99v1.131h8.455v1.32H6.99v4.989H9c2.485 0 4.735 1.25 6.364 3.271S18 21.747 18 24.831s-1.007 5.877-2.636 7.898S11.485 36 9 36s-4.735-1.25-6.364-3.271S0 27.916 0 24.83h1.064c0 2.72.888 5.182 2.324 6.964M9 16.115H0v1.32h9c1.646 0 3.137.827 4.215 2.166 1.079 1.338 1.746 3.188 1.746 5.23s-.667 3.893-1.746 5.231S10.646 32.23 9 32.23s-3.136-.828-4.215-2.167-1.746-3.188-1.746-5.23H1.975c0 2.407.787 4.586 2.058 6.163S7.06 33.55 9 33.55s3.696-.976 4.967-2.554 2.057-3.756 2.057-6.164-.786-4.586-2.057-6.163C12.696 17.09 10.94 16.114 9 16.114m0 2.45H0v1.32h9c1.1 0 2.097.554 2.818 1.45.722.894 1.168 2.13 1.168 3.496s-.446 2.603-1.168 3.497c-.72.895-1.717 1.449-2.818 1.449s-2.097-.554-2.818-1.449-1.168-2.13-1.168-3.497H3.951c0 1.73.565 3.297 1.479 4.43.913 1.135 2.176 1.836 3.57 1.836s2.657-.701 3.57-1.835c.914-1.134 1.48-2.7 1.48-4.43s-.566-3.297-1.48-4.431c-.913-1.134-2.175-1.835-3.57-1.835m0 2.452H0v1.32h9c.555 0 1.058.28 1.422.73.363.452.588 1.076.588 1.764 0 .69-.225 1.313-.588 1.764-.364.452-.867.73-1.422.73s-1.057-.278-1.421-.73-.59-1.075-.59-1.764H5.927c0 1.054.344 2.007.9 2.698.557.69 1.325 1.117 2.174 1.117s1.617-.427 2.174-1.117.9-1.644.9-2.698c0-1.053-.344-2.006-.9-2.697-.557-.69-1.325-1.117-2.174-1.117" clip-rule="evenodd"/></svg>