<svg xmlns="http://www.w3.org/2000/svg" width="67" height="67" fill="none" viewBox="0 0 67 67"><g clip-path="url(#a)"><path fill="#12338D" d="M57.218 37.034c.078-1.396-.324-2.625-1.164-3.555l-.011-.012a4.5 4.5 0 0 0-1.355-1.009l-.056-.027c-2.409-1.13-5.841-.289-8.54 2.094-1.976 1.742-3.227 4.041-3.346 6.152-.079 1.396.325 2.626 1.17 3.558l.008.01c.385.418.845.76 1.355 1.009 2.414 1.177 5.872.348 8.613-2.063 1.963-1.745 3.208-4.046 3.326-6.158m-15.84 8.23c-.975-1.5-1.896-2.92-2.06-4.743-.449-5.043-.72-8.087-4.439-9.901s-6.288-.155-10.543 2.594c-1.54.993-3.23 1.141-5.018 1.299-2.051.18-4.17.365-5.823 1.958a6.5 6.5 0 0 0-1.478 1.995c-1.54 3.155-.334 6.921 2.686 8.394 1.558.76 3.479 1.029 5.512 1.313 1.955.273 3.976.556 5.484 1.292 1.508.735 2.97 2.151 4.383 3.52 1.475 1.423 2.861 2.767 4.424 3.53 3.015 1.47 6.72.1 8.26-3.056.368-.75.59-1.564.653-2.398.238-2.285-.92-4.07-2.04-5.797M27.08 22.997c.406 1.82 1.379 3.188 2.741 3.852q.28.136.576.23c3.045.968 6.506-1.636 7.883-5.934.58-1.806.698-3.695.336-5.314-.405-1.817-1.38-3.185-2.742-3.849a4 4 0 0 0-.576-.23c-3.045-.968-6.506 1.636-7.883 5.934-.58 1.804-.696 3.69-.335 5.31m13.35 8.975q.256.177.536.313c1.363.665 3.04.589 4.723-.212 1.498-.713 2.91-1.968 3.979-3.535 2.538-3.73 2.459-8.06-.178-9.866a4 4 0 0 0-.535-.312c-1.362-.662-3.041-.589-4.722.21-1.499.712-2.915 1.967-3.981 3.539-2.538 3.73-2.46 8.06.178 9.863m-21.856-.091.014.002c1.252.09 2.47-.349 3.52-1.27 1.591-1.397 2.633-3.795 2.79-6.424.218-3.638-1.256-6.873-3.668-8.05a4.5 4.5 0 0 0-1.629-.446l-.014-.002c-1.248-.092-2.466.35-3.517 1.271-1.591 1.397-2.633 3.795-2.79 6.424-.218 3.638 1.256 6.873 3.667 8.05.51.248 1.062.4 1.627.445"/></g><defs><clipPath id="a"><path fill="#fff" d="m22 0 44.94 21.919-21.919 44.94-44.94-21.92z"/></clipPath></defs></svg>