<svg width="24" height="24" viewBox="0 0 24 24" fill="none" xmlns="http://www.w3.org/2000/svg">
<rect width="24" height="24" fill="#1E1E1E"/>
<g id="Mobile 320">
<path d="M-750 -4933C-750 -4934.1 -749.105 -4935 -748 -4935H1764C1765.1 -4935 1766 -4934.1 1766 -4933V826C1766 827.104 1765.1 828 1764 828H-748C-749.105 828 -750 827.104 -750 826V-4933Z" fill="#444444"/>
<path d="M-748 -4934H1764V-4936H-748V-4934ZM1765 -4933V826H1767V-4933H1765ZM1764 827H-748V829H1764V827ZM-749 826V-4933H-751V826H-749ZM-748 827C-748.552 827 -749 826.552 -749 826H-751C-751 827.657 -749.657 829 -748 829V827ZM1765 826C1765 826.552 1764.55 827 1764 827V829C1765.66 829 1767 827.657 1767 826H1765ZM1764 -4934C1764.55 -4934 1765 -4933.55 1765 -4933H1767C1767 -4934.66 1765.66 -4936 1764 -4936V-4934ZM-748 -4936C-749.657 -4936 -751 -4934.66 -751 -4933H-749C-749 -4933.55 -748.552 -4934 -748 -4934V-4936Z" fill="white" fill-opacity="0.1"/>
<g id="T.D. Mobile 320" clip-path="url(#clip0_143_753)">
<rect width="320" height="4939" transform="translate(-108 -4711)" fill="#21429F"/>
<g id="Block1-Home">
<rect width="320" height="502" transform="translate(-108 -454)" fill="#FFE5B2"/>
<g id="Carosel">
<g id="ion:paw-sharp">
<path id="Vector" d="M20.7563 16.9603C20.3438 15.7838 19.3824 15.1875 18.4543 14.6109C17.6466 14.1089 16.884 13.6345 16.3852 12.7828C15.0104 10.4236 14.2552 9 12.0029 9C9.75055 9 8.99305 10.4241 7.61493 12.7823C7.11571 13.6359 6.3493 14.1112 5.54071 14.6142C4.61258 15.1912 3.65305 15.7861 3.23915 16.9603C3.07809 17.3837 2.99703 17.8334 3.00008 18.2864C3.00008 20.1961 4.52118 21.75 6.20633 21.75C7.89149 21.75 10.1115 20.9002 12.0076 20.9002C13.9037 20.9002 16.0927 21.75 17.799 21.75C19.5052 21.75 21.0001 20.1961 21.0001 18.2864C21.0014 17.8331 20.9188 17.3835 20.7563 16.9603Z" fill="#12338D"/>
<path id="Vector_2" d="M3.375 13.5C4.82475 13.5 6 11.989 6 10.125C6 8.26104 4.82475 6.75 3.375 6.75C1.92525 6.75 0.75 8.26104 0.75 10.125C0.75 11.989 1.92525 13.5 3.375 13.5Z" fill="#12338D"/>
<path id="Vector_3" d="M8.625 9C10.0747 9 11.25 7.48896 11.25 5.625C11.25 3.76104 10.0747 2.25 8.625 2.25C7.17525 2.25 6 3.76104 6 5.625C6 7.48896 7.17525 9 8.625 9Z" fill="#12338D"/>
<path id="Vector_4" d="M15.375 9C16.8247 9 18 7.48896 18 5.625C18 3.76104 16.8247 2.25 15.375 2.25C13.9253 2.25 12.75 3.76104 12.75 5.625C12.75 7.48896 13.9253 9 15.375 9Z" fill="#12338D"/>
<path id="Vector_5" d="M20.625 13.5C22.0747 13.5 23.25 11.989 23.25 10.125C23.25 8.26104 22.0747 6.75 20.625 6.75C19.1753 6.75 18 8.26104 18 10.125C18 11.989 19.1753 13.5 20.625 13.5Z" fill="#12338D"/>
</g>
</g>
</g>
</g>
</g>
<defs>
<clipPath id="clip0_143_753">
<rect width="320" height="4939" fill="white" transform="translate(-108 -4711)"/>
</clipPath>
</defs>
</svg>
