<svg width="43" height="85" viewBox="0 0 43 85" fill="none" xmlns="http://www.w3.org/2000/svg">
<path fill-rule="evenodd" clip-rule="evenodd" d="M8.09403 9.92798C11.525 5.71961 16.2649 3.11672 21.5002 3.11672C26.7358 3.11672 31.4757 5.71961 34.9063 9.92798C38.3373 14.1359 40.459 19.9493 40.459 26.3704C40.459 31.5082 39.1004 36.2563 36.8004 40.1047C36.7678 40.0644 36.7353 40.0236 36.7028 39.9837C36.2056 39.3743 35.6841 38.7943 35.1401 38.2458L35.1833 38.2888C37.1339 34.9257 38.2812 30.8129 38.2812 26.3704C38.2812 20.6872 36.4025 15.5415 33.3662 11.8171C30.3291 8.09232 26.1339 5.78843 21.5002 5.78843C16.8664 5.78843 12.6713 8.09232 9.63455 11.8171C6.59782 15.5415 4.71952 20.6872 4.71952 26.3704H7.2605C7.2605 21.5478 8.85428 17.1812 11.431 14.0206C14.0077 10.8605 17.5681 8.90471 21.5002 8.90471C25.4323 8.90471 28.9923 10.8605 31.5694 14.0206C34.1464 17.1812 35.7399 21.5478 35.7399 26.3704C35.7399 30.1246 34.7741 33.6012 33.1313 36.4483C32.5123 35.9595 31.8714 35.5079 31.2112 35.0971L31.233 35.1107C32.6974 32.6617 33.5624 29.6401 33.5624 26.3704C33.5624 22.2857 32.212 18.5867 30.0292 15.9097C27.8467 13.2323 24.8307 11.5764 21.5002 11.5764C18.1696 11.5764 15.154 13.2323 12.9712 15.9097C10.7887 18.5867 9.43832 22.2857 9.43832 26.3704H11.9793C11.9793 23.1458 13.0452 20.226 14.7676 18.1128C16.4908 16.0001 18.8709 14.6927 21.4998 14.6927C24.1291 14.6927 26.5092 16.0001 28.2324 18.1128C29.9552 20.2255 31.0211 23.1454 31.0211 26.3704C31.0211 29.207 30.1961 31.8077 28.825 33.8305C29.5231 34.1405 30.204 34.4938 30.8663 34.8875C29.4745 34.0602 27.9986 33.4109 26.4595 32.9655L26.4917 32.9747C26.56 32.8976 26.6268 32.8186 26.6926 32.738C28.0212 31.1084 28.8432 28.8567 28.8432 26.37C28.8432 23.8833 28.0212 21.6315 26.6926 20.0019C25.3637 18.3723 23.5282 17.364 21.5002 17.364C19.4728 17.364 17.6367 18.3723 16.3081 20.0019C14.9792 21.632 14.1575 23.8833 14.1575 26.37H16.6985C16.6985 24.7434 17.236 23.2712 18.1046 22.2054C18.9735 21.1392 20.1741 20.4803 21.5002 20.4803C22.8262 20.4803 24.0272 21.1392 24.8958 22.2054C25.7643 23.2708 26.3019 24.7434 26.3019 26.37C26.3019 27.9965 25.7643 29.4691 24.8958 30.5349C24.0269 31.6007 22.8259 32.2597 21.5002 32.2597H6.91093V35.3764H21.5002C26.7358 35.3764 31.4757 37.9793 34.9063 42.1872C38.3373 46.3951 40.459 52.2085 40.459 58.6296C40.459 65.0511 38.337 70.8645 34.9063 75.0725C31.4754 79.2809 26.7358 81.8837 21.5002 81.8837C16.2649 81.8837 11.525 79.2804 8.09403 75.0725C4.66341 70.8645 2.54098 65.0511 2.54098 58.6296H0C0 65.9117 2.40659 72.5042 6.29722 77.276C10.1879 82.0486 15.5629 85 21.4998 85C27.4367 85 32.8122 82.0486 36.7024 77.276C40.5934 72.5042 43 65.9117 43 58.6296C43 52.5365 41.3147 46.9261 38.4842 42.4608L38.5096 42.5002C41.324 38.0415 43 32.446 43 26.3704C43 19.0883 40.5934 12.4962 36.7024 7.72405C32.8122 2.95187 27.4367 0 21.4998 0C15.5629 0 10.1879 2.95187 6.29722 7.72405C2.40659 12.4962 0 19.0883 0 26.3704H2.54098C2.54098 19.9493 4.66341 14.1359 8.09403 9.92798ZM21.5002 38.0481C26.1336 38.0481 30.3291 40.352 33.3662 44.0768C36.4025 47.8011 38.2812 52.9468 38.2812 58.6301C38.2812 64.3141 36.4025 69.4594 33.3662 73.1838C30.3291 76.9086 26.1339 79.2125 21.5002 79.2125C16.8664 79.2125 12.6713 76.9081 9.63455 73.1838C6.59782 69.4594 4.71952 64.3141 4.71952 58.6301H7.2605C7.2605 63.4535 8.85428 67.8197 11.431 70.9807C14.0077 74.1408 17.5681 76.0957 21.5002 76.0957C25.4323 76.0957 28.9923 74.1408 31.5694 70.9807C34.1464 67.8197 35.7399 63.4535 35.7399 58.6301C35.7399 53.807 34.1464 49.4408 31.5694 46.2803C28.9923 43.1197 25.4323 41.1648 21.5002 41.1648V41.1652H6.91093V38.0481H21.5002ZM21.5002 43.8361C24.8307 43.8361 27.8464 45.492 30.0292 48.1694C32.212 50.8464 33.5624 54.5453 33.5624 58.6301C33.5624 62.7157 32.212 66.4142 30.0292 69.0916C27.8467 71.7686 24.8307 73.4245 21.5002 73.4245C18.1696 73.4245 15.154 71.7686 12.9712 69.0916C10.7887 66.4142 9.43832 62.7157 9.43832 58.6301H11.9793C11.9793 61.8555 13.0452 64.7749 14.7676 66.8872C16.4908 69.0004 18.8709 70.3077 21.4998 70.3077C24.1291 70.3077 26.5092 69.0004 28.2324 66.8872C29.9552 64.7745 31.0211 61.8555 31.0211 58.6301C31.0211 55.4055 29.9556 52.4861 28.2324 50.3733C26.5096 48.2602 24.1291 46.9528 21.4998 46.9528H6.91057V43.8365H21.5002V43.8361ZM21.5002 49.6241C23.5279 49.6241 25.3637 50.632 26.6926 52.262C28.0212 53.8916 28.8432 56.1434 28.8432 58.6301C28.8432 61.1172 28.0212 63.3689 26.6926 64.9985C25.3637 66.6286 23.5282 67.6369 21.5002 67.6369C19.4728 67.6369 17.6367 66.629 16.3081 64.9985C14.9792 63.3689 14.1575 61.1172 14.1575 58.6301H16.6985C16.6985 60.2566 17.236 61.7292 18.1046 62.7946C18.9735 63.8608 20.1741 64.5198 21.5002 64.5198C22.8262 64.5198 24.0272 63.8608 24.8958 62.7946C25.7643 61.7292 26.3019 60.2566 26.3019 58.6301C26.3019 57.004 25.7643 55.5317 24.8958 54.4655C24.0269 53.3997 22.8259 52.7408 21.5002 52.7408H6.91093V49.6241H21.5002ZM30.8713 34.8902C30.9235 34.9217 30.976 34.9533 31.0286 34.9849L30.8713 34.8902ZM31.05 34.9985C31.0993 35.0283 31.1476 35.0581 31.1962 35.0883C31.148 35.0576 31.0993 35.0278 31.05 34.9985ZM22.0624 32.2689C22.1493 32.2715 22.2361 32.275 22.323 32.2785C22.2365 32.2754 22.1493 32.2719 22.0624 32.2689ZM22.3423 32.2798C22.4249 32.2838 22.5074 32.2886 22.59 32.2934C22.5074 32.2886 22.4249 32.2842 22.3423 32.2798ZM22.6193 32.2956C22.7008 32.3009 22.783 32.3061 22.8645 32.3127C22.783 32.3061 22.7008 32.3004 22.6193 32.2956ZM22.9006 32.3149C22.9803 32.3215 23.0596 32.3281 23.139 32.3355C23.0596 32.3285 22.9803 32.3215 22.9006 32.3149ZM23.1687 32.3386C23.2491 32.3465 23.3292 32.3544 23.4092 32.3631C23.3295 32.3544 23.2487 32.346 23.1687 32.3386ZM23.7223 32.3995C23.7942 32.4087 23.8657 32.4179 23.9375 32.4276C23.866 32.4179 23.7942 32.4087 23.7223 32.3995ZM24.0022 32.4368C24.0694 32.4464 24.1366 32.4565 24.2038 32.467C24.1362 32.4565 24.069 32.4464 24.0022 32.4368ZM24.2763 32.478C24.3382 32.4876 24.4004 32.4977 24.4629 32.5082C24.4004 32.4982 24.3382 32.4881 24.2763 32.478ZM24.5555 32.5245C24.6141 32.5354 24.6727 32.5455 24.7317 32.5565C24.6727 32.5455 24.6141 32.535 24.5555 32.5245ZM24.8218 32.5731C24.8772 32.5836 24.9322 32.5946 24.988 32.6056C24.9319 32.5946 24.8772 32.5836 24.8218 32.5731ZM25.0991 32.6284C25.1485 32.6385 25.1974 32.649 25.2461 32.6595C25.2879 32.6687 25.3301 32.6779 25.3719 32.6871L25.2461 32.6595C25.1967 32.649 25.1485 32.6385 25.0991 32.6284ZM25.3719 32.6871C25.4187 32.6972 25.4648 32.7082 25.5109 32.7187L25.636 32.7481L25.7593 32.7779L25.3719 32.6871Z" fill="#45227E"/>
</svg>
