<svg width="43" height="85" viewBox="0 0 43 85" fill="none" xmlns="http://www.w3.org/2000/svg">
<path fill-rule="evenodd" clip-rule="evenodd" d="M8.09373 9.92793C11.5247 5.71958 16.2643 3.1167 21.5 3.1167C26.7357 3.1167 31.4753 5.71958 34.9063 9.92793C38.3369 14.1358 40.4586 19.9492 40.459 26.3703C40.4586 32.7917 38.3366 38.6051 34.9063 42.813C31.4753 47.0209 26.7353 49.6238 21.5 49.6238C19.4726 49.6238 17.6365 50.6317 16.3076 52.2618C14.979 53.8913 14.1569 56.1431 14.1569 58.6297H16.6979C16.6979 57.0037 17.2351 55.5315 18.1044 54.4652C18.9733 53.3994 20.1739 52.7405 21.5 52.7405C27.437 52.7405 32.8121 49.7891 36.7027 45.0165C40.5934 40.2443 43 33.6519 43 26.3703C43 19.0882 40.5934 12.4962 36.7027 7.72401C32.8121 2.95186 27.437 0 21.5 0C15.563 0 10.1879 2.95186 6.29727 7.72401C2.40661 12.4962 0 19.0882 0 26.3703H2.541C2.541 19.9492 4.66308 14.1358 8.09373 9.92793ZM0 85V58.6297C0 51.3481 2.40661 44.7557 6.29727 39.9835C10.1879 35.2113 15.563 32.2599 21.5 32.2599C22.8257 32.2599 24.0263 31.601 24.8953 30.5352C25.7642 29.4694 26.3018 27.9968 26.3018 26.3703C26.3018 24.7437 25.7645 23.2715 24.8953 22.2057C24.0263 21.1395 22.8257 20.4806 21.5 20.4806C20.1739 20.4806 18.9733 21.1395 18.1044 22.2057C17.2355 23.2711 16.6979 24.7437 16.6979 26.3703H14.1569C14.1569 23.8836 14.9786 21.6319 16.3076 20.0023C17.6365 18.3727 19.4723 17.3643 21.5 17.3643C23.5277 17.3643 25.3635 18.3727 26.6921 20.0023C28.021 21.6323 28.8428 23.8836 28.8428 26.3703C28.8428 28.857 28.021 31.1087 26.6921 32.7382C25.3631 34.3683 23.5274 35.3766 21.5 35.3766C16.2643 35.3766 11.5247 37.9795 8.09373 42.1874C4.66308 46.3953 2.541 52.2087 2.541 58.6297V85H0ZM4.71884 58.6297C4.7192 52.9466 6.59752 47.8009 9.63427 44.0765C12.671 40.3518 16.8662 38.0479 21.5 38.0479C24.1289 38.0479 26.5094 36.741 28.2326 34.6278C29.9551 32.5147 31.021 29.5952 31.021 26.3703C31.021 23.1457 29.9551 20.2259 28.2326 18.1127C26.5094 16 24.1293 14.6926 21.5 14.6926C18.8711 14.6926 16.4906 16 14.7674 18.1127C13.0449 20.2254 11.979 23.1453 11.979 26.3703H9.43804C9.43804 22.2855 10.7881 18.5866 12.9709 15.9097C15.1538 13.2323 18.1691 11.5764 21.5 11.5764C24.8309 11.5764 27.8462 13.2323 30.0291 15.9097C32.2119 18.5866 33.562 22.2855 33.562 26.3703C33.562 30.4554 32.2119 34.1539 30.0291 36.8313C27.8462 39.5083 24.8309 41.1646 21.5 41.1646V41.1642C17.5675 41.1642 14.0075 43.119 11.4311 46.2796C8.85435 49.4401 7.2602 53.8063 7.2602 58.6293V84.9996H4.71884V58.6297ZM9.43804 58.6297C9.43804 54.545 10.7881 50.8461 12.9709 48.1692C15.1538 45.4917 18.1691 43.8358 21.5 43.8358C25.4325 43.8358 28.9922 41.8805 31.5689 38.7204C34.1456 35.5603 35.7398 31.1933 35.7398 26.3703C35.7398 21.5477 34.1456 17.1811 31.5689 14.0205C28.9922 10.8604 25.4321 8.90466 21.5 8.90466C17.5675 8.90466 14.0075 10.8604 11.4311 14.0205C8.85435 17.1811 7.2602 21.5477 7.2602 26.3703H4.71884C4.7192 20.6871 6.59752 15.5414 9.63427 11.8171C12.671 8.09228 16.8662 5.7884 21.5 5.7884C26.1334 5.7884 30.329 8.09228 33.3657 11.8171C36.4021 15.5414 38.2808 20.6871 38.2808 26.3703C38.2808 32.0539 36.4021 37.1996 33.3657 40.9239C30.3286 44.6487 26.1334 46.9521 21.5 46.9521C18.8711 46.9521 16.4906 48.2595 14.7674 50.3726C13.0449 52.4854 11.979 55.4048 11.979 58.6293V84.9996H9.43804V58.6297ZM14.1569 58.6297V85H16.6979H39.2323V81.8833H16.6979V58.6297H14.1569ZM16.6982 64.5194V67.6361H39.2326V64.5194H16.6982ZM39.2323 70.3074H16.6979V73.4241H39.2323V70.3074ZM39.2323 76.0953H16.6979V79.212H39.2323V76.0953Z" fill="#45227E"/>
</svg>
