<svg width="44" height="85" viewBox="0 0 44 85" fill="none" xmlns="http://www.w3.org/2000/svg">
<path fill-rule="evenodd" clip-rule="evenodd" d="M43.7009 36.1892H0.926758V39.3059H43.7013L43.7009 36.1892ZM26.935 85H29.4859V50.8819H31.6726V85H34.2239V50.8819H36.4109V85H38.9622V50.8819H41.1496V85H43.7006V50.8819V47.7652H0.926758V50.8819H26.9353L26.935 85ZM29.4863 30.4012V13.1148V10.5856H26.9353V30.4012H17.693V16.2136V0H15.1417V14.0886V30.4012H12.9547V11.9215V0H10.4034V9.39267V30.4012H8.21675V7.22513V0H5.66545V4.69633V30.4012H3.47842V2.5288V0H0.927119V30.4012V33.5179H43.7016V30.4012V26.7996V10.586H41.1507V24.6746V30.4012H38.9633V22.5075V10.586H36.4127V19.9787V30.4012H34.2253V17.8112V10.5856H31.6744V15.2824V30.4012H29.4863ZM43.7009 41.9772H0.926758V45.0939H43.7013L43.7009 41.9772Z" fill="#45227E"/>
</svg>
