<svg width="43" height="85" viewBox="0 0 43 85" fill="none" xmlns="http://www.w3.org/2000/svg">
<path fill-rule="evenodd" clip-rule="evenodd" d="M9.11148 9.9287C12.9733 5.72039 18.3091 3.11754 24.2029 3.11754V5.78921C18.9866 5.78921 14.2641 8.09306 10.8457 11.8178C7.4272 15.5421 5.31279 20.6877 5.31279 26.3709H8.17318C8.17318 21.5483 9.96731 17.1818 12.8679 14.0213C15.7686 10.8612 19.7761 8.90544 24.2029 8.90544V11.5771C20.4537 11.5771 17.0589 13.233 14.6017 15.9104C12.1445 18.5873 10.6248 22.2862 10.6248 26.3709H13.4852C13.4852 23.1463 14.6846 20.2265 16.624 18.1134C18.5634 16.0007 21.2431 14.6933 24.2025 14.6933V17.3646C21.9203 17.3646 19.8533 18.3729 18.3578 20.0025C16.8618 21.6325 15.9363 23.8838 15.9363 26.3704H18.7971C18.7971 24.7439 19.4023 23.2717 20.3804 22.206C21.3586 21.1397 22.7101 20.4808 24.2029 20.4808V84.9991H27.0633V0H24.2029C17.5196 0 11.4689 2.95181 7.08921 7.72392C2.7091 12.496 0 19.088 0 26.37H2.86079C2.86079 19.9499 5.24961 14.1366 9.11148 9.9287ZM29.5152 0.000869651V85H32.3756V0.000869651H29.5152ZM34.8272 0.000869651V85H37.688V0.000869651H34.8272ZM40.1396 0.00131117V85H43V0.00131117H40.1396Z" fill="#45227E"/>
</svg>
