<svg width="45" height="85" viewBox="0 0 45 85" fill="none" xmlns="http://www.w3.org/2000/svg">
<path fill-rule="evenodd" clip-rule="evenodd" d="M8.60449 75.0725C12.1675 79.2808 17.089 81.8837 22.5252 81.8837C27.9618 81.8837 32.8836 79.2804 36.4463 75.0725C40.0086 70.8645 42.2117 65.0511 42.2117 58.6296C42.2117 52.2085 40.0086 46.3951 36.4463 42.1872C32.8836 37.9793 27.9618 35.3764 22.5252 35.3764H0.200195V32.2597V0H2.8387V32.2597H5.10048V0H7.73898V32.2597H10.0004V0H12.6393V32.2597H14.9007V0H17.5388H20.6308H38.5117V3.11714H23.9508H17.5388V5.78799H26.7964H38.5117V8.90471H30.1163H17.5388V11.5764H32.9615H38.5117V14.6931H36.2811H17.5388V17.364H38.5117V20.4807H17.5388V32.2597H22.5252C28.6896 32.2597 34.2713 35.2111 38.3109 39.9833C42.3512 44.7554 44.8502 51.3479 44.8502 58.6296C44.8502 65.9117 42.3512 72.5042 38.3109 77.276C34.2713 82.0486 28.6896 85 22.5252 85C16.3608 85 10.7791 82.0486 6.73948 77.276C2.69915 72.5042 0.200195 65.9117 0.200195 58.6296H2.8387C2.8387 65.0511 5.0422 70.8645 8.60449 75.0725ZM22.5252 38.0476H0.200195V41.1648H22.5252V41.1644C26.6086 41.1644 30.3056 43.1193 32.9809 46.2798C35.6565 49.4404 37.3114 53.8066 37.3114 58.6296C37.3114 63.4531 35.6565 67.8193 32.9809 70.9803C30.3056 74.1404 26.6086 76.0953 22.5252 76.0953C18.4418 76.0953 14.7452 74.1404 12.0696 70.9803C9.39395 67.8193 7.73898 63.4531 7.73898 58.6296H5.10048C5.10048 64.3137 7.05088 69.459 10.2045 73.1833C13.3574 76.9081 17.7136 79.212 22.5252 79.212C27.3368 79.212 31.693 76.9077 34.8466 73.1833C37.9995 69.459 39.9499 64.3137 39.9499 58.6296C39.9499 52.9464 37.9995 47.8007 34.8466 44.0763C31.693 40.3515 27.3368 38.0476 22.5252 38.0476ZM22.5252 43.8356H0.200195V46.9519H22.5252C25.2554 46.9519 27.7272 48.2593 29.5158 50.3724C31.3051 52.4852 32.4119 55.4046 32.4119 58.6292C32.4119 61.8546 31.3055 64.774 29.5158 66.8863C27.7272 68.9995 25.2554 70.3069 22.5252 70.3069C19.7954 70.3069 17.3232 68.9995 15.5346 66.8863C13.7457 64.7736 12.6385 61.8546 12.6385 58.6292H10.0004C10.0004 62.7148 11.4022 66.4133 13.6692 69.0907C15.9355 71.7677 19.0665 73.4236 22.5252 73.4236C25.9839 73.4236 29.115 71.7677 31.3816 69.0907C33.6482 66.4133 35.0504 62.7148 35.0504 58.6292C35.0504 54.5444 33.6482 50.8455 31.3816 48.1685C29.115 45.4915 25.9843 43.8356 22.5252 43.8356ZM22.5252 49.6236H0.200195V52.7403H22.5252C23.9022 52.7403 25.1489 53.3993 26.0515 54.4651C26.9534 55.5309 27.5116 57.0035 27.5116 58.6296C27.5116 60.2561 26.9534 61.7288 26.0515 62.7941C25.1489 63.8604 23.9022 64.5193 22.5252 64.5193C21.1482 64.5193 19.9023 63.8604 18.9993 62.7941C18.0974 61.7288 17.5388 60.2561 17.5388 58.6296H14.9007C14.9007 61.1168 15.754 63.3685 17.1335 64.9981C18.5138 66.6281 20.4197 67.6365 22.5252 67.6365C24.6307 67.6365 26.537 66.6285 27.9169 64.9981C29.2965 63.3685 30.1501 61.1168 30.1501 58.6296C30.1501 56.1433 29.2965 53.8912 27.9169 52.2616C26.537 50.632 24.6307 49.6236 22.5252 49.6236Z" fill="#45227E"/>
</svg>
