<svg aria-hidden="true" style="position: absolute; width: 0; height: 0; overflow: hidden;" version="1.1" xmlns="http://www.w3.org/2000/svg" xmlns:xlink="http://www.w3.org/1999/xlink">
<defs>
<symbol id="icon-arrow" viewBox="0 0 32 32">
<path d="M16 1c-8.284 0-15 6.716-15 15s6.716 15 15 15c8.284 0 15-6.716 15-15s-6.716-15-15-15zM16.847 24v-5.286h-9.347v-5.143h9.347v-5.571l7.653 8-7.653 8z"></path>
</symbol>
<symbol id="icon-home" viewBox="0 0 32 32">
<path d="M15.973 4c-0.057 0-0.111 0.018-0.157 0.052-0.023 0.017-0.046 0.034-0.070 0.049l-10.317 6.798c-0.067 0.061-0.096 0.137-0.096 0.21v15.015c-0.001 0.246 0.046 0.49 0.139 0.717s0.231 0.434 0.404 0.609c0.173 0.174 0.38 0.313 0.607 0.407s0.471 0.143 0.716 0.143h17.6c0.246 0 0.489-0.049 0.717-0.143s0.433-0.233 0.607-0.407c0.173-0.174 0.311-0.381 0.404-0.609s0.141-0.471 0.139-0.717v-15.015c0-0.073-0.029-0.148-0.096-0.21l-10.369-6.797c-0.025-0.016-0.049-0.033-0.072-0.051-0.045-0.034-0.1-0.052-0.157-0.052zM14.249 1.895c0.5-0.365 1.104-0.562 1.724-0.562s1.222 0.196 1.722 0.56l10.395 6.814c0.028 0.018 0.056 0.038 0.082 0.059 0.716 0.552 1.16 1.406 1.16 2.343v15.005c0.003 0.596-0.112 1.187-0.339 1.739s-0.56 1.055-0.981 1.478c-0.421 0.423-0.922 0.759-1.473 0.989s-1.143 0.347-1.74 0.347h-17.6c-0.597 0-1.189-0.118-1.74-0.347s-1.052-0.565-1.474-0.989c-0.421-0.423-0.755-0.926-0.981-1.478s-0.341-1.142-0.339-1.738c0-0.001 0-0.002 0-0.004l1.333 0.007h-1.333v-15.008c0-0.937 0.444-1.791 1.16-2.343 0.026-0.020 0.053-0.039 0.080-0.057l10.343-6.815zM14.249 1.895c-0.013 0.010-0.026 0.019-0.039 0.029l0.803 1.064-0.734-1.113-0.030 0.020z"></path>
<path d="M13.333 17.333v10.667h5.333v-10.667h-5.333zM10.667 17.067c0-1.323 1.077-2.4 2.4-2.4h5.867c1.323 0 2.4 1.077 2.4 2.4v12.267c0 0.736-0.597 1.333-1.333 1.333h-8c-0.736 0-1.333-0.597-1.333-1.333v-12.267z"></path>
</symbol>
<symbol id="icon-menu" viewBox="0 0 32 32">
<path d="M1.778 8c0 1.227 0.995 2.222 2.222 2.222h24c1.227 0 2.222-0.995 2.222-2.222s-0.995-2.222-2.222-2.222h-24c-1.227 0-2.222 0.995-2.222 2.222zM1.778 16c0 1.227 0.995 2.222 2.222 2.222h24c1.227 0 2.222-0.995 2.222-2.222s-0.995-2.222-2.222-2.222h-24c-1.227 0-2.222 0.995-2.222 2.222zM1.778 24c0 1.227 0.995 2.222 2.222 2.222h24c1.227 0 2.222-0.995 2.222-2.222s-0.995-2.222-2.222-2.222h-24c-1.227 0-2.222 0.995-2.222 2.222z"></path>
</symbol>
<symbol id="icon-paw-sharp" viewBox="0 0 32 32">
<path d="M27.675 22.614c-0.55-1.569-1.832-2.364-3.069-3.133-1.077-0.669-2.094-1.302-2.759-2.437-1.833-3.146-2.84-5.044-5.843-5.044s-4.013 1.899-5.851 5.043c-0.666 1.138-1.688 1.772-2.766 2.443-1.237 0.769-2.517 1.563-3.069 3.128-0.215 0.565-0.323 1.164-0.319 1.768 0 2.546 2.028 4.618 4.275 4.618s5.207-1.133 7.735-1.133c2.528 0 5.447 1.133 7.722 1.133s4.268-2.072 4.268-4.618c0.002-0.604-0.108-1.204-0.325-1.768z"></path>
<path d="M4.5 18c1.933 0 3.5-2.015 3.5-4.5s-1.567-4.5-3.5-4.5-3.5 2.015-3.5 4.5c0 2.485 1.567 4.5 3.5 4.5z"></path>
<path d="M11.5 12c1.933 0 3.5-2.015 3.5-4.5s-1.567-4.5-3.5-4.5c-1.933 0-3.5 2.015-3.5 4.5s1.567 4.5 3.5 4.5z"></path>
<path d="M20.5 12c1.933 0 3.5-2.015 3.5-4.5s-1.567-4.5-3.5-4.5c-1.933 0-3.5 2.015-3.5 4.5s1.567 4.5 3.5 4.5z"></path>
<path d="M27.5 18c1.933 0 3.5-2.015 3.5-4.5s-1.567-4.5-3.5-4.5-3.5 2.015-3.5 4.5c0 2.485 1.567 4.5 3.5 4.5z"></path>
</symbol>
<symbol id="icon-x" viewBox="0 0 32 32">
<path d="M3.429 4.429c0.868-0.868 2.275-0.868 3.143 0l8.929 8.929 8.929-8.929c0.868-0.868 2.275-0.868 3.143 0s0.868 2.275 0 3.143l-8.929 8.929 8.929 8.929c0.868 0.868 0.868 2.275 0 3.143s-2.275 0.868-3.143 0l-8.929-8.929-8.929 8.929c-0.868 0.868-2.275 0.868-3.143 0s-0.868-2.275 0-3.143l8.929-8.929-8.929-8.929c-0.868-0.868-0.868-2.275 0-3.143z"></path>
</symbol>
<symbol id="icon-arrow-down" viewBox="0 0 32 32">
<path d="M8.076 10.743c0.694-0.694 1.82-0.694 2.514 0l5.41 5.41 5.41-5.41c0.694-0.694 1.82-0.694 2.514 0s0.694 1.82 0 2.514l-6.667 6.667c-0.694 0.694-1.82 0.694-2.514 0l-6.667-6.667c-0.694-0.694-0.694-1.82 0-2.514z"></path>
</symbol>
</defs>
</svg>
