<svg width="18" height="37" viewBox="0 0 18 37" fill="none" xmlns="http://www.w3.org/2000/svg">
<path fill-rule="evenodd" clip-rule="evenodd" d="M3.81411 4.3219C5.4307 2.49005 7.66426 1.35705 10.1314 1.35705V2.52001C7.9479 2.52001 5.97103 3.52286 4.54005 5.14422C3.10906 6.76539 2.22396 9.00525 2.22396 11.4791H3.42133C3.42133 9.37987 4.17236 7.47912 5.38658 6.10337C6.60079 4.72781 8.27836 3.87648 10.1314 3.87648V5.03945C8.562 5.03945 7.14095 5.76024 6.11234 6.92569C5.08374 8.09095 4.44758 9.70105 4.44758 11.4791H5.64495C5.64495 10.0755 6.14704 8.80449 6.95888 7.88465C7.77071 6.965 8.89246 6.39592 10.1313 6.39592V7.5587C9.17593 7.5587 8.3107 7.99763 7.68464 8.70697C7.05842 9.41651 6.67103 10.3965 6.67103 11.4789H7.86857C7.86857 10.7709 8.12189 10.13 8.53134 9.66612C8.9408 9.20201 9.50656 8.91518 10.1314 8.91518V36.9996H11.3288V0H10.1314C7.3338 0 4.80094 1.28491 2.96758 3.36218C1.13404 5.43944 0 8.30888 0 11.4787H1.19754C1.19754 8.68407 2.19751 6.15356 3.81411 4.3219ZM12.3552 0.000378554V37H13.5526V0.000378554H12.3552ZM14.5788 0.000378554V37H15.7764V0.000378554H14.5788ZM16.8026 0.000570743V37H18V0.000570743H16.8026Z" fill="#45227E"/>
</svg>
