<svg width="18" height="36" viewBox="0 0 18 36" fill="none" xmlns="http://www.w3.org/2000/svg">
<path fill-rule="evenodd" clip-rule="evenodd" d="M3.38807 4.20477C4.82431 2.42241 6.80831 1.32001 9 1.32001C11.1917 1.32001 13.1757 2.42241 14.6119 4.20477C16.048 5.98694 16.9362 8.44909 16.9363 11.1686C16.9362 13.8883 16.0479 16.3504 14.6119 18.1326C13.1757 19.9147 11.1915 21.0171 9 21.0171C8.15133 21.0171 7.38272 21.444 6.82642 22.1344C6.27027 22.8246 5.92614 23.7782 5.92614 24.8314H6.98981C6.98981 24.1427 7.21469 23.5192 7.57858 23.0676C7.94231 22.6162 8.4449 22.3372 9 22.3372C11.4852 22.3372 13.7353 21.0871 15.3639 19.0658C16.9926 17.0447 18 14.2526 18 11.1686C18 8.08441 16.9926 5.29249 15.3639 3.27135C13.7353 1.2502 11.4852 0 9 0C6.51475 0 4.26472 1.2502 2.63607 3.27135C1.00742 5.29249 0 8.08441 0 11.1686H1.06367C1.06367 8.44909 1.95199 5.98694 3.38807 4.20477ZM0 36V24.8314C0 21.7474 1.00742 18.9553 2.63607 16.9342C4.26472 14.913 6.51475 13.663 9 13.663C9.55495 13.663 10.0575 13.384 10.4213 12.9326C10.785 12.4812 11.01 11.8575 11.01 11.1686C11.01 10.4797 10.7852 9.85618 10.4213 9.40479C10.0575 8.95321 9.55495 8.67413 9 8.67413C8.4449 8.67413 7.94231 8.95321 7.57858 9.40479C7.21484 9.85599 6.98981 10.4797 6.98981 11.1686H5.92614C5.92614 10.1154 6.27012 9.16173 6.82642 8.47155C7.38272 7.78137 8.15119 7.3543 9 7.3543C9.84881 7.3543 10.6173 7.78137 11.1734 8.47155C11.7297 9.16191 12.0737 10.1154 12.0737 11.1686C12.0737 12.2218 11.7297 13.1754 11.1734 13.8656C10.6171 14.556 9.84866 14.983 9 14.983C6.80831 14.983 4.82431 16.0854 3.38807 17.8676C1.95199 19.6498 1.06367 22.1119 1.06367 24.8314V36H0ZM1.97533 24.8314C1.97548 22.4244 2.76175 20.2451 4.03295 18.6677C5.30415 17.0902 7.06028 16.1144 9 16.1144C10.1005 16.1144 11.097 15.5609 11.8183 14.6659C12.5393 13.7709 12.9855 12.5345 12.9855 11.1686C12.9855 9.80289 12.5393 8.56625 11.8183 7.67126C11.097 6.77646 10.1006 6.22276 9 6.22276C7.89952 6.22276 6.90303 6.77646 6.18169 7.67126C5.46066 8.56606 5.01448 9.80271 5.01448 11.1686H3.95081C3.95081 9.43858 4.51593 7.87198 5.42968 6.73821C6.34343 5.60425 7.60566 4.90293 9 4.90293C10.3943 4.90293 11.6566 5.60425 12.5703 6.73821C13.4841 7.87198 14.0492 9.43858 14.0492 11.1686C14.0492 12.8988 13.4841 14.4652 12.5703 15.5991C11.6566 16.7329 10.3943 17.4344 9 17.4344V17.4342C7.35384 17.4342 5.86359 18.2622 4.78511 19.6008C3.70647 20.9393 3.03915 22.7886 3.03915 24.8312V35.9998H1.97533V24.8314ZM3.95081 24.8314C3.95081 23.1014 4.51593 21.5348 5.42968 20.4011C6.34343 19.2671 7.60566 18.5658 9 18.5658C10.6462 18.5658 12.1363 17.7376 13.2149 16.3992C14.2935 15.0608 14.9608 13.2113 14.9608 11.1686C14.9608 9.12608 14.2935 7.27669 13.2149 5.93811C12.1363 4.59971 10.646 3.77139 9 3.77139C7.35384 3.77139 5.86359 4.59971 4.78511 5.93811C3.70647 7.27669 3.03915 9.12608 3.03915 11.1686H1.97533C1.97548 8.76159 2.76175 6.58224 4.03295 5.00487C5.30415 3.42732 7.06028 2.45156 9 2.45156C10.9396 2.45156 12.6958 3.42732 13.967 5.00487C15.2381 6.58224 16.0245 8.76159 16.0245 11.1686C16.0245 13.5758 15.2381 15.7551 13.967 17.3325C12.6957 18.91 10.9396 19.8856 9 19.8856C7.89952 19.8856 6.90303 20.4393 6.18169 21.3343C5.46066 22.2291 5.01448 23.4655 5.01448 24.8312V35.9998H3.95081V24.8314ZM5.92614 24.8314V36H6.98981H16.4228V34.68H6.98981V24.8314H5.92614ZM6.98996 27.3259V28.6459H16.423V27.3259H6.98996ZM16.4228 29.7772H6.98981V31.0973H16.4228V29.7772ZM16.4228 32.2286H6.98981V33.5486H16.4228V32.2286Z" fill="#45227E"/>
</svg>
