<svg width="20" height="33" viewBox="0 0 20 33" fill="none" xmlns="http://www.w3.org/2000/svg">
<path fill-rule="evenodd" clip-rule="evenodd" d="M3.76466 3.85439C5.36047 2.22055 7.56507 1.21002 10.0001 1.21002C12.4353 1.21002 14.6399 2.22055 16.2355 3.85439C17.8313 5.48806 18.8181 7.74503 18.8181 10.2379C18.8181 12.2326 18.1862 14.076 17.1164 15.5701C17.1013 15.5544 17.0862 15.5386 17.0711 15.5231C16.8398 15.2865 16.5973 15.0613 16.3442 14.8484L16.3643 14.8651C17.2716 13.5594 17.8052 11.9627 17.8052 10.2379C17.8052 8.0315 16.9314 6.03375 15.5191 4.58782C14.1065 3.14172 12.1553 2.24727 10.0001 2.24727C7.84486 2.24727 5.89362 3.14172 4.48119 4.58782C3.06875 6.03375 2.19513 8.0315 2.19513 10.2379H3.37698C3.37698 8.36562 4.11827 6.67033 5.31674 5.44329C6.51522 4.21643 8.1712 3.45712 10.0001 3.45712C11.829 3.45712 13.4848 4.21643 14.6834 5.44329C15.8821 6.67033 16.6232 8.36562 16.6232 10.2379C16.6232 11.6954 16.174 13.0452 15.4099 14.1505C15.122 13.9607 14.8239 13.7854 14.5168 13.6259L14.527 13.6312C15.2081 12.6804 15.6104 11.5073 15.6104 10.2379C15.6104 8.65208 14.9823 7.21602 13.9671 6.17672C12.952 5.13726 11.5492 4.49438 10.0001 4.49438C8.451 4.49438 7.04837 5.13726 6.0331 6.17672C5.018 7.21602 4.38992 8.65208 4.38992 10.2379H5.57177C5.57177 8.98603 6.06751 7.85243 6.86866 7.03202C7.67013 6.21179 8.77717 5.70422 9.99992 5.70422C11.2228 5.70422 12.3299 6.21179 13.1313 7.03202C13.9327 7.85226 14.4284 8.98586 14.4284 10.2379C14.4284 11.3392 14.0447 12.3489 13.407 13.1342C13.7317 13.2545 14.0484 13.3917 14.3564 13.5446C13.7091 13.2234 13.0226 12.9713 12.3068 12.7984L12.3217 12.802C12.3535 12.772 12.3846 12.7414 12.4152 12.71C13.0331 12.0774 13.4155 11.2032 13.4155 10.2377C13.4155 9.27232 13.0331 8.39813 12.4152 7.76546C11.797 7.13279 10.9434 6.74131 10.0001 6.74131C9.05713 6.74131 8.20312 7.13279 7.58518 7.76546C6.96708 8.3983 6.58487 9.27232 6.58487 10.2377H7.76672C7.76672 9.60627 8.01676 9.03471 8.42074 8.62093C8.82488 8.20698 9.38331 7.95116 10.0001 7.95116C10.6169 7.95116 11.1754 8.20698 11.5794 8.62093C11.9834 9.03454 12.2334 9.60627 12.2334 10.2377C12.2334 10.8692 11.9834 11.441 11.5794 11.8547C11.1753 12.2685 10.6167 12.5243 10.0001 12.5243H3.21439V13.7344H10.0001C12.4353 13.7344 14.6399 14.7449 16.2355 16.3786C17.8313 18.0122 18.8181 20.2692 18.8181 22.7621C18.8181 25.2551 17.8311 27.5121 16.2355 29.1458C14.6397 30.7796 12.4353 31.7902 10.0001 31.7902C7.56507 31.7902 5.36047 30.7795 3.76466 29.1458C2.16903 27.5121 1.18185 25.2551 1.18185 22.7621H0C0 25.5893 1.11934 28.1487 2.92894 30.0013C4.73854 31.8542 7.23856 33 9.99992 33C12.7613 33 15.2615 31.8542 17.0709 30.0013C18.8807 28.1487 20 25.5893 20 22.7621C20 20.3965 19.2161 18.2183 17.8996 16.4848L17.9114 16.5001C19.2205 14.7691 20 12.5967 20 10.2379C20 7.41074 18.8807 4.85148 17.0709 2.99875C15.2615 1.14602 12.7613 0 9.99992 0C7.23856 0 4.73854 1.14602 2.92894 2.99875C1.11934 4.85148 0 7.41074 0 10.2379H1.18185C1.18185 7.74503 2.16903 5.48806 3.76466 3.85439ZM10.0001 14.7716C12.1551 14.7716 14.1065 15.6661 15.5191 17.1122C16.9314 18.5581 17.8052 20.5558 17.8052 22.7623C17.8052 24.969 16.9314 26.9666 15.5191 28.4125C14.1065 29.8586 12.1553 30.7531 10.0001 30.7531C7.84486 30.7531 5.89362 29.8584 4.48119 28.4125C3.06875 26.9666 2.19513 24.969 2.19513 22.7623H3.37698C3.37698 24.6349 4.11827 26.33 5.31674 27.5572C6.51522 28.7841 8.1712 29.5431 10.0001 29.5431C11.829 29.5431 13.4848 28.7841 14.6834 27.5572C15.8821 26.33 16.6232 24.6349 16.6232 22.7623C16.6232 20.8898 15.8821 19.1947 14.6834 17.9676C13.4848 16.7406 11.829 15.9816 10.0001 15.9816V15.9818H3.21439V14.7716H10.0001ZM10.0001 17.0187C11.5492 17.0187 12.9518 17.6616 13.9671 18.7011C14.9823 19.7404 15.6104 21.1764 15.6104 22.7623C15.6104 24.3484 14.9823 25.7843 13.9671 26.8238C12.952 27.8631 11.5492 28.506 10.0001 28.506C8.451 28.506 7.04837 27.8631 6.0331 26.8238C5.018 25.7843 4.38992 24.3484 4.38992 22.7623H5.57177C5.57177 24.0145 6.06751 25.1479 6.86866 25.968C7.67013 26.7884 8.77717 27.2959 9.99992 27.2959C11.2228 27.2959 12.3299 26.7884 13.1313 25.968C13.9327 25.1477 14.4284 24.0145 14.4284 22.7623C14.4284 21.5104 13.9328 20.3769 13.1313 19.5567C12.33 18.7363 11.2228 18.2287 9.99992 18.2287H3.21422V17.0189H10.0001V17.0187ZM10.0001 19.2658C10.9432 19.2658 11.797 19.6571 12.4152 20.29C13.0331 20.9226 13.4155 21.7968 13.4155 22.7623C13.4155 23.7279 13.0331 24.602 12.4152 25.2347C11.797 25.8676 10.9434 26.259 10.0001 26.259C9.05713 26.259 8.20312 25.8677 7.58518 25.2347C6.96708 24.602 6.58487 23.7279 6.58487 22.7623H7.76672C7.76672 23.3937 8.01676 23.9655 8.42074 24.3791C8.82488 24.793 9.38331 25.0488 10.0001 25.0488C10.6169 25.0488 11.1754 24.793 11.5794 24.3791C11.9834 23.9655 12.2334 23.3937 12.2334 22.7623C12.2334 22.131 11.9834 21.5594 11.5794 21.1454C11.1753 20.7317 10.6167 20.4758 10.0001 20.4758H3.21439V19.2658H10.0001ZM14.3587 13.5456C14.383 13.5578 14.4075 13.5701 14.4319 13.5824L14.3587 13.5456ZM14.4419 13.5876C14.4648 13.5992 14.4873 13.6108 14.5099 13.6225C14.4874 13.6106 14.4648 13.599 14.4419 13.5876ZM10.2616 12.5279C10.302 12.5289 10.3424 12.5303 10.3828 12.5317C10.3426 12.5305 10.302 12.5291 10.2616 12.5279ZM10.3918 12.5322C10.4302 12.5337 10.4686 12.5356 10.507 12.5374C10.4686 12.5356 10.4302 12.5339 10.3918 12.5322ZM10.5206 12.5383C10.5585 12.5403 10.5967 12.5424 10.6347 12.5449C10.5967 12.5424 10.5585 12.5402 10.5206 12.5383ZM10.6514 12.5458C10.6885 12.5483 10.7254 12.5509 10.7623 12.5538C10.7254 12.5511 10.6885 12.5483 10.6514 12.5458ZM10.7761 12.555C10.8135 12.558 10.8508 12.5611 10.888 12.5645C10.8509 12.5611 10.8134 12.5579 10.7761 12.555ZM11.0336 12.5786C11.0671 12.5822 11.1003 12.5858 11.1337 12.5895C11.1005 12.5858 11.0671 12.5822 11.0336 12.5786ZM11.1638 12.5931C11.1951 12.5968 11.2263 12.6008 11.2576 12.6048C11.2262 12.6008 11.1949 12.5968 11.1638 12.5931ZM11.2913 12.6091C11.3201 12.6128 11.349 12.6168 11.3781 12.6208C11.349 12.6169 11.3201 12.613 11.2913 12.6091ZM11.4212 12.6271C11.4484 12.6314 11.4757 12.6353 11.5031 12.6396C11.4757 12.6353 11.4484 12.6312 11.4212 12.6271ZM11.545 12.646C11.5708 12.6501 11.5964 12.6544 11.6223 12.6586C11.5962 12.6544 11.5708 12.6501 11.545 12.646ZM11.674 12.6675C11.697 12.6714 11.7197 12.6755 11.7424 12.6796C11.7618 12.6831 11.7814 12.6867 11.8009 12.6903L11.7424 12.6796C11.7194 12.6755 11.697 12.6714 11.674 12.6675ZM11.8009 12.6903C11.8226 12.6942 11.8441 12.6985 11.8655 12.7025L11.9237 12.714L11.9811 12.7255L11.8009 12.6903Z" fill="#45227E"/>
</svg>
