<svg width="18" height="37" viewBox="0 0 18 37" fill="none" xmlns="http://www.w3.org/2000/svg">
<path fill-rule="evenodd" clip-rule="evenodd" d="M17.9997 15.6671H0V17.0164H17.9998L17.9997 15.6671ZM10.9445 36.7984H12.0179V22.0279H12.9381V36.7984H14.0117V22.0279H14.932V36.7984H16.0056V22.0279H16.9261V36.7984H17.9995V22.0279V20.6786H0V22.0279H10.9446L10.9445 36.7984ZM12.0181 13.1613V5.6777V4.58274H10.9446V13.1613H7.05538V7.01921V0H5.98178V6.09925V13.1613H5.06146V5.16106V0H3.98785V4.06629V13.1613H3.06768V3.12792V0H1.99408V2.03315V13.1613H1.07376V1.09477V0H0.00015209V13.1613V14.5106H18V13.1613V11.6021V4.58293H16.9265V10.6822V13.1613H16.0061V9.74399V4.58293H14.9328V8.64922V13.1613H14.0123V7.71084V4.58274H12.9388V6.61607V13.1613H12.0181ZM17.9997 18.1728H0V19.5221H17.9998L17.9997 18.1728Z" fill="#45227E"/>
</svg>
