<svg width="18" height="36" viewBox="0 0 18 36" fill="none" xmlns="http://www.w3.org/2000/svg">
<path fill-rule="evenodd" clip-rule="evenodd" d="M3.38807 31.7954C4.82446 33.5778 6.80847 34.6802 9 34.6802C11.1917 34.6802 13.1758 33.5776 14.6121 31.7954C16.0482 30.0132 16.9363 27.5511 16.9363 24.8314C16.9363 22.1119 16.0482 19.6497 14.6121 17.8675C13.1758 16.0853 11.1917 14.9829 9 14.9829H0V13.6629V0H1.06367V13.6629H1.97548V0H3.03915V13.6629H3.95081V0H5.01463V13.6629H5.92629V0H6.98981H8.23632H15.4447V1.3202H9.5747H6.98981V2.45138H10.7219H15.4447V3.7714H12.0602H6.98981V4.90295H13.2073H15.4447V6.22298H14.5455H6.98981V7.35415H15.4447V8.67417H6.98981V13.6629H9C11.4851 13.6629 13.7353 14.9129 15.3638 16.9341C16.9926 18.9552 18 21.7474 18 24.8314C18 27.9156 16.9926 30.7077 15.3638 32.7286C13.7353 34.75 11.4851 36 9 36C6.5149 36 4.26472 34.75 2.63622 32.7286C1.00742 30.7077 0 27.9156 0 24.8314H1.06367C1.06367 27.5511 1.95198 30.0132 3.38807 31.7954ZM9 16.1143H0V17.4345H9V17.4343C10.6462 17.4343 12.1366 18.2623 13.215 19.6009C14.2937 20.9395 14.9608 22.7887 14.9608 24.8314C14.9608 26.8742 14.2937 28.7235 13.215 30.0622C12.1366 31.4006 10.6462 32.2286 9 32.2286C7.35384 32.2286 5.8636 31.4006 4.78496 30.0622C3.70633 28.7235 3.03915 26.8742 3.03915 24.8314H1.97548C1.97548 27.2387 2.76175 29.4179 4.0331 30.9953C5.30415 32.5728 7.06028 33.5486 9 33.5486C10.9397 33.5486 12.6958 32.5727 13.9672 30.9953C15.2382 29.4179 16.0245 27.2387 16.0245 24.8314C16.0245 22.4244 15.2382 20.245 13.9672 18.6676C12.6958 17.0901 10.9397 16.1143 9 16.1143ZM9 18.5657H0V19.8855H9C10.1006 19.8855 11.0971 20.4392 11.8182 21.3342C12.5395 22.229 12.9857 23.4655 12.9857 24.8312C12.9857 26.1972 12.5396 27.4337 11.8182 28.3283C11.0971 29.2233 10.1006 29.777 9 29.777C7.89952 29.777 6.90288 29.2233 6.18185 28.3283C5.46066 27.4335 5.01433 26.1972 5.01433 24.8312H3.95081C3.95081 26.5616 4.51594 28.128 5.42984 29.2619C6.34344 30.3957 7.60566 31.097 9 31.097C10.3943 31.097 11.6566 30.3957 12.5703 29.2619C13.4841 28.128 14.0493 26.5616 14.0493 24.8312C14.0493 23.1012 13.4841 21.5346 12.5703 20.4008C11.6566 19.267 10.3945 18.5657 9 18.5657ZM9 21.0171H0V22.3371H9C9.5551 22.3371 10.0577 22.6162 10.4216 23.0676C10.7852 23.519 11.0102 24.1427 11.0102 24.8314C11.0102 25.5202 10.7852 26.144 10.4216 26.5952C10.0577 27.0467 9.5551 27.3258 9 27.3258C8.4449 27.3258 7.94261 27.0467 7.57858 26.5952C7.21499 26.144 6.98981 25.5202 6.98981 24.8314H5.92629C5.92629 25.8847 6.27027 26.8384 6.82642 27.5286C7.38287 28.219 8.15119 28.646 9 28.646C9.84881 28.646 10.6173 28.2191 11.1736 27.5286C11.7297 26.8384 12.0739 25.8847 12.0739 24.8314C12.0739 23.7784 11.7297 22.8245 11.1736 22.1343C10.6173 21.4441 9.84881 21.0171 9 21.0171Z" fill="#45227E"/>
</svg>
