<svg width="67" height="67" viewBox="0 0 67 67" fill="none" xmlns="http://www.w3.org/2000/svg">
<g clip-path="url(#clip0_143_3686)">
<path d="M57.2184 37.0335C57.2959 35.6382 56.8937 34.4087 56.0543 33.4789L56.0428 33.4668C55.6582 33.0487 55.1985 32.7066 54.6877 32.4581L54.6315 32.4307C52.223 31.3006 48.791 32.142 46.0922 34.5253C44.1161 36.2669 42.8652 38.5665 42.7462 40.6772C42.6674 42.073 43.0713 43.3033 43.9151 44.2353L43.9244 44.2452C44.309 44.6633 44.7687 45.0054 45.2795 45.2539C47.6933 46.4311 51.1508 45.6022 53.8916 43.1905C55.8551 41.4459 57.0999 39.1455 57.2184 37.0335ZM41.3781 45.2644C40.4033 43.7633 39.4822 42.3438 39.3175 40.5206C38.8694 35.4779 38.5983 32.4338 34.8794 30.62C31.1604 28.8061 28.5912 30.4649 24.3364 33.2139C22.7957 34.2074 21.1069 34.3551 19.3178 34.5125C17.2668 34.6921 15.1478 34.8777 13.4951 36.4706C12.8793 37.0351 12.3774 37.7124 12.0167 38.4659C10.4777 41.6213 11.6832 45.3874 14.7026 46.86C16.2605 47.6199 18.1818 47.8888 20.2151 48.1731C22.1701 48.4465 24.1911 48.7292 25.6991 49.4647C27.207 50.2001 28.6697 51.6165 30.0825 52.9858C31.5566 54.4077 32.9435 55.7524 34.5058 56.5144C37.5208 57.9849 41.2263 56.6141 42.7653 53.4586C43.1342 52.7085 43.356 51.8946 43.4186 51.061C43.6572 48.7761 42.4984 46.9908 41.3781 45.2644ZM27.0802 22.9969C27.4856 24.8168 28.459 26.1847 29.8213 26.8491C30.0073 26.9398 30.1997 27.0166 30.397 27.0789C33.442 28.0468 36.9033 25.4433 38.2804 21.1451C38.8605 19.3387 38.9777 17.4499 38.6158 15.8305C38.2109 14.0141 37.2353 12.6462 35.8739 11.9822C35.6879 11.8915 35.4955 11.8147 35.2982 11.7525C32.2532 10.7845 28.7919 13.3881 27.4148 17.6862C26.8351 19.4896 26.7188 21.3766 27.0802 22.9969ZM40.4303 31.9724C40.6009 32.0896 40.7798 32.1939 40.9658 32.2847C42.3289 32.9495 44.0053 32.874 45.6889 32.073C47.1874 31.3599 48.5993 30.1047 49.6678 28.5375C52.2061 24.808 52.1267 20.4775 49.4902 18.6722C49.3196 18.555 49.1406 18.4507 48.9547 18.3599C47.5925 17.6977 45.9139 17.771 44.2333 18.5703C42.7344 19.2821 41.3181 20.5373 40.2518 22.1088C37.7135 25.8384 37.7929 30.1689 40.4303 31.9724ZM18.5738 31.8809L18.5883 31.8826C19.8405 31.9728 21.0573 31.5341 22.1073 30.6131C23.6991 29.2164 24.7406 26.818 24.8982 24.1894C25.1156 20.5513 23.6415 17.3159 21.2304 16.1399C20.7202 15.8902 20.1675 15.7386 19.6013 15.693L19.5869 15.6914C18.339 15.5989 17.1205 16.0411 16.0704 16.9621C14.4787 18.3588 13.4371 20.7573 13.2796 23.3859C13.0622 27.024 14.5362 30.2594 16.9473 31.4353C17.4568 31.6843 18.0086 31.8355 18.5738 31.8809Z" fill="#12338D"/>
</g>
<defs>
<clipPath id="clip0_143_3686">
<rect width="50" height="50" fill="white" transform="translate(22) rotate(26)"/>
</clipPath>
</defs>
</svg>
